# xmcd
#
# Track frame offsets: 
#        183
#        11098
#        25320
#        39373
#        52210
#        62720
#        74780
#        84965
#        95530
#        107685
#        118208
#        128388
#        140978
#        152915
#        164710
#        176518
#
# Disc length: 2500 seconds
#
# Revision: 1
# Processed by: cddbd v1.5.2PL0 Copyright (c) Steve Scherf et al.
# Submitted via: ExactAudioCopy v0.99pb4
#
DISCID=e809c210
DTITLE=Chuck Berry - World of Chuck Berry - Rock and Roll Music
DYEAR=1992
DGENRE=Rock
TTITLE0=Rock And Roll Music
TTITLE1=Sweet Little Sixteen
TTITLE2=Low Feeling
TTITLE3=(Get Your Kicks On) Route 66
TTITLE4=Drifting Blues
TTITLE5=School Day
TTITLE6=All Aboard
TTITLE7=Maybellene
TTITLE8=You Never Can Tell
TTITLE9=Almost Grown
TTITLE10=I Got To Find My Baby
TTITLE11=Carol
TTITLE12=St. Lois Blues
TTITLE13=Oh Baby Doll
TTITLE14=Little Marie
TTITLE15=Back in the USA
EXTD=
EXTT0=
EXTT1=
EXTT2=
EXTT3=
EXTT4=
EXTT5=
EXTT6=
EXTT7=
EXTT8=
EXTT9=
EXTT10=
EXTT11=
EXTT12=
EXTT13=
EXTT14=
EXTT15=
PLAYORDER=
